<svg xmlns="http://www.w3.org/2000/svg" xmlns:xlink="http://www.w3.org/1999/xlink" width="500" zoomAndPan="magnify" viewBox="0 0 375 374.999991" height="500" preserveAspectRatio="xMidYMid meet" version="1.0"><defs><g/><clipPath id="19a1cc59df"><path d="M 155 164 L 196 164 L 196 196.585938 L 155 196.585938 Z M 155 164 " clip-rule="nonzero"/></clipPath><clipPath id="2ec860db27"><path d="M 168 124.585938 L 219 124.585938 L 219 165 L 168 165 Z M 168 124.585938 " clip-rule="nonzero"/></clipPath><clipPath id="c3a9ff4a11"><path d="M 187 136 L 231.976562 136 L 231.976562 196.585938 L 187 196.585938 Z M 187 136 " clip-rule="nonzero"/></clipPath><clipPath id="e0a6dd61ce"><path d="M 142.726562 132 L 188 132 L 188 196.585938 L 142.726562 196.585938 Z M 142.726562 132 " clip-rule="nonzero"/></clipPath></defs><path fill="#2a2e30" d="M 169.03125 164.09375 C 169.03125 153.894531 177.230469 145.625 187.34375 145.625 C 197.457031 145.625 205.65625 153.894531 205.65625 164.09375 C 205.65625 174.292969 197.457031 182.558594 187.34375 182.558594 C 177.230469 182.558594 169.03125 174.292969 169.03125 164.09375 Z M 166.847656 164.09375 C 166.847656 175.507812 176.023438 184.757812 187.34375 184.757812 C 198.660156 184.757812 207.839844 175.507812 207.839844 164.09375 C 207.839844 152.679688 198.660156 143.429688 187.34375 143.429688 C 176.023438 143.429688 166.847656 152.679688 166.847656 164.09375 " fill-opacity="1" fill-rule="nonzero"/><g clip-path="url(#19a1cc59df)"><path fill="#2a2e30" d="M 162.257812 164.09375 C 162.257812 178.0625 173.488281 189.390625 187.34375 189.390625 C 187.34375 189.390625 190.28125 193.144531 195.378906 196.585938 L 158.960938 196.585938 C 150.59375 181.285156 162.257812 164.09375 162.257812 164.09375 " fill-opacity="1" fill-rule="nonzero"/></g><g clip-path="url(#2ec860db27)"><path fill="#2a2e30" d="M 172.570312 124.582031 L 202.117188 124.582031 C 203.964844 124.582031 205.667969 125.574219 206.59375 127.1875 L 210.175781 133.445312 C 211.097656 135.058594 212.804688 136.050781 214.652344 136.050781 L 217.613281 136.050781 C 221.957031 150.050781 212.429688 164.09375 212.429688 164.09375 C 212.429688 150.121094 201.199219 138.796875 187.34375 138.796875 C 187.34375 138.796875 180.007812 129.417969 168.402344 126.71875 C 169.367188 125.386719 170.910156 124.582031 172.570312 124.582031 " fill-opacity="1" fill-rule="nonzero"/></g><g clip-path="url(#c3a9ff4a11)"><path fill="#2a2e30" d="M 212.429688 164.09375 C 212.429688 164.09375 226.625 152.800781 224.988281 136.050781 L 226.769531 136.050781 C 229.625 136.050781 231.9375 138.382812 231.9375 141.261719 L 231.9375 191.375 C 231.9375 194.253906 229.625 196.585938 226.769531 196.585938 L 206.773438 196.585938 C 195.804688 194.121094 187.34375 189.390625 187.34375 189.390625 C 201.199219 189.390625 212.429688 178.0625 212.429688 164.09375 " fill-opacity="1" fill-rule="nonzero"/></g><g clip-path="url(#e0a6dd61ce)"><path fill="#2a2e30" d="M 147.917969 136.050781 L 160.035156 136.050781 C 161.882812 136.050781 163.589844 135.058594 164.511719 133.445312 L 165.046875 132.507812 C 176.878906 131.578125 187.34375 138.796875 187.34375 138.796875 C 173.488281 138.796875 162.257812 150.121094 162.257812 164.09375 C 162.257812 164.09375 145.507812 177.414062 150.492188 196.585938 L 147.917969 196.585938 C 145.0625 196.585938 142.75 194.253906 142.75 191.375 L 142.75 141.261719 C 142.75 138.382812 145.0625 136.050781 147.917969 136.050781 " fill-opacity="1" fill-rule="nonzero"/></g><path fill="#2a2e30" d="M 190.304688 179.289062 C 182.207031 179.289062 175.644531 172.671875 175.644531 164.507812 C 175.644531 156.339844 182.207031 149.722656 190.304688 149.722656 C 192.089844 149.722656 193.796875 150.042969 195.378906 150.628906 C 193.144531 149.398438 190.582031 148.699219 187.859375 148.699219 C 179.203125 148.699219 172.183594 155.773438 172.183594 164.507812 C 172.183594 173.238281 179.203125 180.3125 187.859375 180.3125 C 190.582031 180.3125 193.144531 179.613281 195.378906 178.378906 C 193.796875 178.96875 192.089844 179.289062 190.304688 179.289062 " fill-opacity="1" fill-rule="nonzero"/><path fill="#2a2e30" d="M 191.734375 175.128906 C 185.914062 175.128906 181.199219 170.371094 181.199219 164.507812 C 181.199219 158.636719 185.914062 153.882812 191.734375 153.882812 C 193.011719 153.882812 194.242188 154.113281 195.378906 154.535156 C 193.773438 153.652344 191.933594 153.148438 189.976562 153.148438 C 183.753906 153.148438 178.710938 158.230469 178.710938 164.507812 C 178.710938 170.777344 183.753906 175.867188 189.976562 175.867188 C 191.933594 175.867188 193.773438 175.359375 195.378906 174.472656 C 194.242188 174.898438 193.011719 175.128906 191.734375 175.128906 " fill-opacity="1" fill-rule="nonzero"/><g fill="#2a2e30" fill-opacity="1"><g transform="translate(153.544364, 232.52811)"><g><path d="M 19.140625 -17.71875 L 11.46875 0 L 7.421875 0 L -0.234375 -17.71875 L 4.203125 -17.71875 L 9.59375 -5.0625 L 15.0625 -17.71875 Z M 19.140625 -17.71875 "/></g></g></g><g fill="#2a2e30" fill-opacity="1"><g transform="translate(177.441112, 232.52811)"><g><path d="M 9.765625 -17.71875 C 11.335938 -17.71875 12.703125 -17.457031 13.859375 -16.9375 C 15.015625 -16.414062 15.90625 -15.671875 16.53125 -14.703125 C 17.15625 -13.742188 17.46875 -12.609375 17.46875 -11.296875 C 17.46875 -9.992188 17.15625 -8.851562 16.53125 -7.875 C 15.90625 -6.90625 15.015625 -6.164062 13.859375 -5.65625 C 12.703125 -5.144531 11.335938 -4.890625 9.765625 -4.890625 L 6.203125 -4.890625 L 6.203125 0 L 2.09375 0 L 2.09375 -17.71875 Z M 9.546875 -8.21875 C 10.773438 -8.21875 11.707031 -8.484375 12.34375 -9.015625 C 12.988281 -9.554688 13.3125 -10.316406 13.3125 -11.296875 C 13.3125 -12.285156 12.988281 -13.046875 12.34375 -13.578125 C 11.707031 -14.109375 10.773438 -14.375 9.546875 -14.375 L 6.203125 -14.375 L 6.203125 -8.21875 Z M 9.546875 -8.21875 "/></g></g></g><g fill="#2a2e30" fill-opacity="1"><g transform="translate(200.983494, 232.52811)"><g><path d="M 18.34375 -17.71875 L 18.34375 0 L 14.25 0 L 14.25 -7.265625 L 6.203125 -7.265625 L 6.203125 0 L 2.09375 0 L 2.09375 -17.71875 L 6.203125 -17.71875 L 6.203125 -10.734375 L 14.25 -10.734375 L 14.25 -17.71875 Z M 18.34375 -17.71875 "/></g></g></g></svg>